<svg
  xmlns="http://www.w3.org/2000/svg"
  fill="none"
  viewBox="0 0 525 403"
  height="403"
  width="525"
  class="drip"
>
  <g
    fill="currentColor"
    fill-rule="evenodd"
    clip-path="url(#a)"
    clip-rule="evenodd"
  >
    <path
      d="M114.618 350.743c-3.012 6.494-12.483 51.422 7.316 51.217 17.19-.177 12.701-44.504 6.807-52.015-4.607-8.521-9.309-8.748-14.123.798ZM106.168 3.38C74.675 2.8 31.109-6.584 11.026 13.525c-14.79 14.811-8.3 55.924-8.427 77.929-.59 101.273-.643 146.804 18.073 152.765 15.233 4.852 6.678-35.397 21.508-53.699 3.82-4.714 6.49-13.008 7.51 21.33 1.007 33.873-12.49 60.343 5.304 63.256 17.239 2.823 8.321-29.432 8.152-62.798-.099-19.339 4.134-54.751 8.16-57.032 10.472-5.936 4.914 33.403 4.692 54.717-.207 20.021-6.069 49.045 15.062 47.279 23.27-1.943-1.59-77.798 9.563-90.438 20.392-23.108-9.05 169.339 19.823 166.878 28.033-2.389 12.655-97.648 9.295-138.251-4.28-51.71 37.497-51.536 29.938-7.947-3.567 20.572-19.979 74.574 9.047 114.307 17.424 23.851 33.135-20.646 24.523-100.937-2.143-19.996-7.225-93.861 6.132-77.27 29.259 36.34-.085 151.498 33.968 136.484 22.868-10.082 9.408-65.917 29.93-75.85 20.888-10.112 31.664 69.612 33.096 113.776 1.423 43.923-6.021 67.298 9.839 77.407 42.737 27.249 22.074-65.739 21.007-91.288-1.22-29.195-9.3-141.679 17.575-155.372 15.393-7.847 17.339 57.625 19.495 77.344 13.718 125.375 50.428 95.276 48.857-34.63-1.105-91.24 16.602-87.258 20.026-70.906 3.518 16.842-1.141 97.901 19.676 100.292 21.787 2.505 16.223-81.412 24.255-62.321 2.978 7.086 8.899 36.202 9.252 51.367.971 39.936-4.987 86.845 17.01 75.512 19.912-10.257 4.489-67.657 8.373-95.683 7.299-52.603 12.417-102.182 12.51-130.628.117-42.278-73.461-33.62-103.358-34.773-34.516-1.332-95.659-.543-130.178-1.801C221.332.02 176.56 4.675 106.168 3.38Z"
    ></path>
  </g>
  <defs>
    <clipPath id="a">
      <path fill="#fff" d="M0 0h525v403H0z"></path>
    </clipPath>
  </defs>
</svg>